<svg xmlns="http://www.w3.org/2000/svg" viewBox="0 0 488.4 488.4" style="enable-background:new 0 0 488.4 488.4" xml:space="preserve" fill="#fff"><path d="M103.1 453.5h282.2v34.9H103.1zm39.9-86h202v66.3H143zM0 0v348.1h488.4V0H0zm461.7 311.3c0 5.4-4.3 9.7-9.7 9.7H36.4c-5.4 0-9.7-4.3-9.7-9.7V36.8c0-5.4 4.3-9.7 9.7-9.7H452c5.4 0 9.7 4.3 9.7 9.7v274.5z"/><path d="M46.1 301.6h396.2V46.5H46.1v255.1zm263.6-107.4c0-1.9 1.2-3.5 2.7-4.3l54.7-25.2-54.7-24.8c-1.6-.8-2.7-2.3-2.7-4.3V116c0-3.3 3.4-5.4 6.3-4l82.4 38.3c1.6.8 2.7 2.3 2.7 4.3v21.7c0 1.9-1.2 3.5-2.7 4.3L316 218.5c-3 1.4-6.4-.8-6.4-4.1v-20.2h.1zm-121.2 59 75.8-162.5c.8-1.6 2.3-2.7 4.3-2.7h17.2c3.5 0 5.9 3.7 4.4 6.9l-75.9 162.5c-.8 1.6-2.3 2.7-4.3 2.7h-17.2c-3.4 0-5.8-3.7-4.3-6.9zM87.6 154.7c0-1.9 1.2-3.5 2.7-4.3l82.5-38.3c2.9-1.4 6.3.8 6.3 4v20c0 1.9-1.2 3.5-2.7 4.3l-54.7 24.8 54.7 25.2c1.6.8 2.7 2.3 2.7 4.3v20.4c0 3.2-3.3 5.4-6.3 4l-82.5-37.9c-1.6-.8-2.7-2.3-2.7-4.3v-22.2z"/><g/><g/><g/><g/><g/><g/><g/><g/><g/><g/><g/><g/><g/><g/><g/></svg>